<svg width="168" height="163" viewBox="0 0 168 163" fill="none" xmlns="http://www.w3.org/2000/svg">
<g clip-path="url(#clip0)">
<path d="M106.653 36.6582H61.3846C60.353 36.6594 59.364 37.0673 58.6346 37.7923C57.9051 38.5174 57.4948 39.5004 57.4935 40.5258V140.529L56.9747 140.686L45.8696 144.067C45.3433 144.226 44.7748 144.172 44.289 143.915C43.8031 143.658 43.4396 143.22 43.2782 142.698L10.2455 35.4489C10.0847 34.9258 10.1395 34.3606 10.3978 33.8776C10.6561 33.3946 11.0968 33.0333 11.6229 32.8731L28.7359 27.6647L78.3471 12.5707L95.46 7.36233C95.7204 7.28266 95.9941 7.25482 96.2654 7.2804C96.5366 7.30598 96.8002 7.38449 97.0409 7.51142C97.2816 7.63835 97.4948 7.81121 97.6682 8.02012C97.8416 8.22903 97.9718 8.46987 98.0515 8.72888L106.495 36.1425L106.653 36.6582Z" fill="#F2F2F2"/>
<path d="M116.532 36.1439L106.356 3.10422C106.187 2.55372 105.91 2.04177 105.541 1.59763C105.173 1.15349 104.72 0.785875 104.209 0.515776C103.697 0.245677 103.137 0.0783914 102.561 0.0234846C101.984 -0.0314222 101.403 0.0271258 100.849 0.195777L76.789 7.51587L27.1805 22.6124L3.12071 29.9351C2.00302 30.2762 1.06716 31.0442 0.518558 32.0705C-0.0300468 33.0968 -0.146578 34.2975 0.194548 35.4091L34.9756 148.325C35.2527 149.222 35.8118 150.008 36.571 150.566C37.3301 151.124 38.2493 151.426 39.1936 151.427C39.6306 151.427 40.0652 151.362 40.4827 151.234L56.9757 146.216L57.4945 146.056V145.517L56.9757 145.675L40.3297 150.741C39.3432 151.04 38.2776 150.938 37.3668 150.457C36.4559 149.976 35.7742 149.156 35.4711 148.176L0.692712 35.2569C0.542539 34.7714 0.490201 34.2612 0.53869 33.7555C0.587179 33.2498 0.735541 32.7586 0.975288 32.3101C1.21503 31.8615 1.54146 31.4643 1.93586 31.1413C2.33026 30.8182 2.78488 30.5757 3.27371 30.4276L27.3335 23.1049L76.9422 8.01093L101.002 0.688257C101.373 0.575787 101.758 0.518441 102.146 0.518082C102.978 0.519938 103.787 0.786534 104.456 1.27882C105.124 1.77111 105.617 2.46321 105.861 3.25377L115.99 36.1439L116.151 36.6596H116.691L116.532 36.1439Z" fill="#3F3D56"/>
<path d="M31.824 32.9574C31.3241 32.957 30.8373 32.7974 30.4353 32.502C30.0333 32.2065 29.7371 31.7908 29.5902 31.3158L26.249 20.468C26.1592 20.1766 26.128 19.8705 26.1573 19.5671C26.1865 19.2637 26.2756 18.9691 26.4195 18.7C26.5633 18.4308 26.7591 18.1925 26.9956 17.9986C27.2321 17.8047 27.5048 17.659 27.7979 17.5698L73.4374 3.68152C74.0294 3.50195 74.669 3.56319 75.2156 3.85182C75.7623 4.14044 76.1715 4.63287 76.3533 5.22101L79.6945 16.0689C79.875 16.6574 79.8134 17.2931 79.523 17.8364C79.2327 18.3798 78.7373 18.7865 78.1457 18.9673L32.5061 32.8555C32.2851 32.9229 32.0552 32.9573 31.824 32.9574Z" fill="#2274A1"/>
<path d="M49.3267 11.5911C52.1921 11.5911 54.5149 9.28235 54.5149 6.43432C54.5149 3.58629 52.1921 1.27751 49.3267 1.27751C46.4614 1.27751 44.1386 3.58629 44.1386 6.43432C44.1386 9.28235 46.4614 11.5911 49.3267 11.5911Z" fill="#2274A1"/>
<path d="M49.3268 9.69977C51.1412 9.69977 52.612 8.23778 52.612 6.43432C52.612 4.63086 51.1412 3.16887 49.3268 3.16887C47.5124 3.16887 46.0415 4.63086 46.0415 6.43432C46.0415 8.23778 47.5124 9.69977 49.3268 9.69977Z" fill="white"/>
<path d="M156.327 150.108H68.648C68.0634 150.107 67.503 149.876 67.0896 149.465C66.6762 149.054 66.4437 148.497 66.4431 147.916V43.4909C66.4437 42.9099 66.6762 42.3528 67.0896 41.9419C67.503 41.531 68.0634 41.2999 68.648 41.2993H156.327C156.911 41.3 157.472 41.5311 157.885 41.9419C158.299 42.3528 158.531 42.9099 158.532 43.4909V147.916C158.531 148.497 158.299 149.054 157.885 149.465C157.472 149.876 156.911 150.107 156.327 150.108Z" fill="#E6E6E6"/>
<path d="M115.989 36.1425H61.3846C60.2155 36.1441 59.0948 36.6065 58.2682 37.4281C57.4415 38.2498 56.9764 39.3638 56.9747 40.5258V145.673L57.4935 145.516V40.5258C57.4948 39.5004 57.9052 38.5174 58.6346 37.7923C59.364 37.0673 60.353 36.6594 61.3846 36.6582H116.15L115.989 36.1425ZM163.59 36.1425H61.3846C60.2155 36.1441 59.0948 36.6065 58.2682 37.4281C57.4415 38.2498 56.9764 39.3638 56.9747 40.5258V158.617C56.9764 159.779 57.4415 160.893 58.2682 161.714C59.0948 162.536 60.2155 162.998 61.3846 163H163.59C164.759 162.998 165.88 162.536 166.707 161.714C167.533 160.893 167.998 159.779 168 158.617V40.5258C167.998 39.3638 167.533 38.2498 166.707 37.4281C165.88 36.6065 164.759 36.1441 163.59 36.1425ZM167.481 158.617C167.48 159.642 167.07 160.625 166.34 161.35C165.611 162.075 164.622 162.483 163.59 162.484H61.3846C60.353 162.483 59.364 162.075 58.6346 161.35C57.9052 160.625 57.4948 159.642 57.4935 158.617V40.5258C57.4948 39.5004 57.9052 38.5174 58.6346 37.7923C59.364 37.0673 60.353 36.6594 61.3846 36.6582H163.59C164.622 36.6594 165.611 37.0673 166.34 37.7923C167.07 38.5174 167.48 39.5004 167.481 40.5258V158.617Z" fill="#3F3D56"/>
<path d="M136.353 47.4875H88.6222C88.0032 47.4868 87.4098 47.2421 86.9721 46.807C86.5344 46.372 86.2882 45.7821 86.2875 45.1669V33.8219C86.2882 33.2067 86.5344 32.6168 86.9721 32.1818C87.4098 31.7468 88.0032 31.5021 88.6222 31.5014H136.353C136.972 31.5021 137.565 31.7468 138.003 32.1818C138.44 32.6168 138.687 33.2067 138.687 33.8219V45.1669C138.687 45.7821 138.44 46.372 138.003 46.807C137.565 47.2421 136.972 47.4868 136.353 47.4875Z" fill="#2274A1"/>
<path d="M112.487 32.2749C115.353 32.2749 117.675 29.9661 117.675 27.1181C117.675 24.27 115.353 21.9613 112.487 21.9613C109.622 21.9613 107.299 24.27 107.299 27.1181C107.299 29.9661 109.622 32.2749 112.487 32.2749Z" fill="#2274A1"/>
<path d="M112.487 30.259C114.233 30.259 115.647 28.8528 115.647 27.1181C115.647 25.3834 114.233 23.9771 112.487 23.9771C110.742 23.9771 109.327 25.3834 109.327 27.1181C109.327 28.8528 110.742 30.259 112.487 30.259Z" fill="white"/>
</g>
<defs>
<clipPath id="clip0">
<rect width="168" height="163" fill="white"/>
</clipPath>
</defs>
</svg>
 