<svg width="75" height="75" viewBox="0 0 75 75" fill="none" xmlns="http://www.w3.org/2000/svg">
<g clip-path="url(#clip0)">
<path d="M29.7519 65.8412C28.9941 65.8412 28.3798 65.2269 28.3798 64.4691C28.3798 63.7113 28.9941 63.097 29.7519 63.097C30.5097 63.097 31.1241 63.7113 31.1241 64.4691C31.1241 65.2269 30.5097 65.8412 29.7519 65.8412Z" fill="white"/>
<path d="M32.1121 40.4109C32.8713 40.4109 33.4842 41.0237 33.4842 41.783C33.4842 42.5404 32.8713 43.1551 32.1121 43.1551C31.3546 43.1551 30.74 42.5403 30.74 41.783C30.74 41.0237 31.3546 40.4109 32.1121 40.4109Z" fill="white"/>
<path d="M38.8558 35.4875C39.615 35.4875 40.2279 36.1004 40.2279 36.8597C40.2279 37.6171 39.615 38.2318 38.8558 38.2318C38.0983 38.2318 37.4837 37.617 37.4837 36.8597C37.4837 36.1004 38.0983 35.4875 38.8558 35.4875Z" fill="white"/>
<path d="M46.452 59.6464C45.6942 59.6464 45.0799 59.0321 45.0799 58.2743C45.0799 57.5165 45.6942 56.9022 46.452 56.9022C47.2098 56.9022 47.8241 57.5165 47.8241 58.2743C47.8241 59.0321 47.2098 59.6464 46.452 59.6464Z" fill="white"/>
<path d="M3.85986 7.2098C6.34876 4.72074 9.65799 3.35009 13.1781 3.35009C16.6983 3.35009 20.0077 4.72074 22.4964 7.2098L34.0225 18.7359L34.0227 18.7361L37.5001 22.2149L43.5112 16.2036C44.047 15.6678 44.916 15.6678 45.4517 16.2036C45.9875 16.7395 45.9875 17.6081 45.4517 18.1441L39.4404 24.1555L54.1962 38.9112L69.1997 23.9061C71.1705 21.9354 72.2558 19.3152 72.2558 16.5281C72.2558 13.7409 71.1705 11.1209 69.1997 9.15013C67.229 7.17948 64.6093 6.09433 61.8227 6.09433C59.0363 6.09433 56.4164 7.17963 54.4456 9.15013L50.1166 13.4792C49.5808 14.015 48.7118 14.015 48.1761 13.4792C47.6403 12.9433 47.6403 12.0744 48.1761 11.5387L52.5052 7.20966C54.9941 4.7206 58.3032 3.34995 61.8226 3.34995C65.342 3.34995 68.6514 4.7206 71.1403 7.2098C73.6292 9.69857 75 13.0081 75 16.5281C75 20.0481 73.6292 23.3575 71.1403 25.8464L55.1666 41.8218C54.9093 42.0792 54.5603 42.2238 54.1962 42.2238C53.8322 42.2238 53.4832 42.0792 53.226 41.8218L37.5001 26.096L21.7757 41.822C21.5184 42.0793 21.1694 42.2239 20.8053 42.2239C20.4411 42.2239 20.0923 42.0793 19.8351 41.822L3.85956 25.8465C1.37065 23.3576 -0.000152588 20.0483 -0.000152588 16.5282C0.000144958 13.0081 1.3708 9.69857 3.85986 7.2098ZM20.8054 38.9112L35.5596 24.1552L33.0521 21.6465L18.2966 36.4023L20.8054 38.9112ZM5.80033 23.9061L16.3561 34.4619L31.1119 19.7059L20.5561 9.15013C18.5855 7.17948 15.9653 6.09433 13.1781 6.09433C10.391 6.09433 7.77098 7.17963 5.80019 9.15013C3.82953 11.1208 2.74409 13.7409 2.74409 16.5281C2.74438 19.3152 3.82968 21.9354 5.80033 23.9061Z" fill="white"/>
<path d="M42.5954 43.5447C45.4008 43.5447 47.6833 45.828 47.6833 48.6345C47.6833 51.4399 45.4008 53.7225 42.5954 53.7225C39.7889 53.7225 37.5056 51.4401 37.5056 48.6345C37.5055 45.828 39.7889 43.5447 42.5954 43.5447ZM42.5954 50.9782C43.8875 50.9782 44.939 49.9268 44.939 48.6346C44.939 47.3413 43.8875 46.2891 42.5954 46.2891C41.3021 46.2891 40.2499 47.3413 40.2499 48.6346C40.2499 49.9268 41.3021 50.9782 42.5954 50.9782Z" fill="white"/>
<path d="M28.2389 48.6455C31.0444 48.6455 33.3269 50.9287 33.3269 53.7352C33.3269 56.5407 31.0444 58.8232 28.2389 58.8232C25.4324 58.8232 23.1492 56.5407 23.1492 53.7352C23.1492 50.9287 25.4324 48.6455 28.2389 48.6455ZM28.2389 56.0789C29.531 56.0789 30.5825 55.0275 30.5825 53.7353C30.5825 52.442 29.531 51.3898 28.2389 51.3898C26.9456 51.3898 25.8934 52.442 25.8934 53.7353C25.8935 55.0276 26.9457 56.0789 28.2389 56.0789Z" fill="white"/>
<path d="M41.9385 61.4723C44.745 61.4723 47.0283 63.7548 47.0283 66.5603C47.0283 69.3668 44.745 71.6501 41.9385 71.6501C39.1331 71.6501 36.8506 69.3668 36.8506 66.5603C36.8506 63.7548 39.1329 61.4723 41.9385 61.4723ZM41.9385 68.9058C43.2318 68.9058 44.284 67.8536 44.284 66.5603C44.284 65.2682 43.2318 64.2167 41.9385 64.2167C40.6464 64.2167 39.5949 65.2682 39.5949 66.5603C39.5949 67.8536 40.6463 68.9058 41.9385 68.9058Z" fill="white"/>
</g>
<defs>
<clipPath id="clip0">
<rect width="75" height="75" fill="white" transform="matrix(-1 0 0 1 75 0)"/>
</clipPath>
</defs>
</svg>
