<svg width="26" height="21" viewBox="0 0 26 21" fill="none" xmlns="http://www.w3.org/2000/svg">
<path d="M3.49694 21C3.37131 21 3.24568 20.9519 3.14997 20.8561L0.143965 17.8473C-0.0479882 17.6553 -0.0479882 17.3448 0.143965 17.1528C0.335828 16.9607 0.645954 16.9607 0.837907 17.1528L3.49694 19.8142L9.16216 14.144C9.35402 13.952 9.66415 13.952 9.8561 14.144C10.048 14.3361 10.048 14.6465 9.8561 14.8387L3.844 20.8561C3.7483 20.9519 3.62257 21 3.49694 21Z" fill="white"/>
<path d="M3.49694 14C3.37131 14 3.24568 13.9519 3.14997 13.8561L0.143965 10.8473C-0.0479882 10.6553 -0.0479882 10.3448 0.143965 10.1528C0.335828 9.96075 0.645954 9.96075 0.837907 10.1528L3.49694 12.8142L9.16216 7.14402C9.35402 6.95199 9.66415 6.95199 9.8561 7.14402C10.048 7.33615 10.048 7.64655 9.8561 7.83867L3.844 13.8561C3.7483 13.9519 3.62257 14 3.49694 14Z" fill="white"/>
<path d="M3.49694 7C3.37131 7 3.24568 6.95188 3.14997 6.85609L0.143965 3.84733C-0.0479882 3.6553 -0.0479882 3.34481 0.143965 3.15278C0.335828 2.96075 0.645954 2.96075 0.837907 3.15278L3.49694 5.81416L9.16216 0.144025C9.35402 -0.0480082 9.66415 -0.0480082 9.8561 0.144025C10.048 0.336147 10.048 0.646548 9.8561 0.838671L3.844 6.85609C3.7483 6.95188 3.62257 7 3.49694 7Z" fill="white"/>
<line x1="11" y1="5.5" x2="26" y2="5.5" stroke="white"/>
<line x1="11" y1="19.5" x2="26" y2="19.5" stroke="white"/>
<line x1="11" y1="12.5" x2="26" y2="12.5" stroke="white"/>
</svg>
